<svg height="384pt" viewBox="0 -24 384 384" width="384pt" xmlns="http://www.w3.org/2000/svg"><path d="m368 192c0 50.398438-21.199219 95.921875-55.199219 128h-241.601562c-34-32.078125-55.199219-77.601562-55.199219-128 0-97.199219 78.800781-176 176-176s176 78.800781 176 176zm0 0" fill="#4dd0e1"/><g fill="#012e52"><path d="m358.257812 96c-34.160156-59.214844-97.867187-96-166.257812-96s-132.097656 36.785156-166.222656 95.953125c-.007813.015625-.015625.023437-.023438.039063-16.851562 28.960937-25.753906 62.152343-25.753906 96.007812 0 33.785156 8.910156 66.992188 25.726562 95.976562.007813.007813.015626.023438.015626.03125 9.203124 15.992188 20.792968 30.664063 34.441406 43.609376 6.417968 6.085937 16.542968 5.808593 22.625-.609376 6.078125-6.414062 5.808594-16.535156-.609375-22.625-7.457031-7.0625-14.078125-14.789062-19.976563-22.984374l26.90625-15.550782c7.648438-4.421875 10.261719-14.207031 5.839844-21.855468-4.417969-7.648438-14.183594-10.257813-21.855469-5.839844l-26.914062 15.550781c-9.269531-20.535156-14.199219-42.941406-14.199219-65.703125 0-22.808594 4.921875-45.207031 14.191406-65.710938l26.921875 15.558594c2.527344 1.464844 5.269531 2.152344 7.992188 2.152344 5.527343 0 10.902343-2.863281 13.863281-8 4.421875-7.65625 1.808594-17.441406-5.839844-21.855469l-26.90625-15.550781c26.714844-37.082031 68.289063-61.097656 113.777344-65.707031v31.113281c0 8.832031 7.167969 16 16 16s16-7.167969 16-16v-31.105469c45.472656 4.609375 87.039062 28.609375 113.769531 65.707031l-26.90625 15.550782c-7.648437 4.421875-10.261719 14.207031-5.839843 21.855468 2.96875 5.128907 8.335937 8 13.863281 8 2.714843 0 5.472656-.695312 7.992187-2.152343l26.929688-15.558594c9.269531 20.480469 14.191406 42.886719 14.191406 65.703125 0 22.753906-4.921875 45.144531-14.207031 65.703125l-26.914063-15.550781c-7.664062-4.425782-17.4375-1.808594-21.855468 5.839844-4.421876 7.65625-1.808594 17.441406 5.839843 21.855468l26.90625 15.550782c-5.898437 8.1875-12.523437 15.921874-19.984375 22.984374-6.417968 6.082032-6.679687 16.210938-.609375 22.625 3.160157 3.320313 7.390625 4.992188 11.632813 4.992188 3.953125 0 7.910156-1.457031 11-4.382812 13.664062-12.953126 25.253906-27.632813 34.429687-43.585938 16.851563-29.039062 25.761719-62.246094 25.761719-96.03125 0-33.871094-8.910156-67.089844-25.742188-96zm0 0"/><path d="m160 304h-16c-8.832031 0-16 7.167969-16 16s7.167969 16 16 16h16c8.832031 0 16-7.167969 16-16s-7.167969-16-16-16zm0 0"/><path d="m208 320c0 8.832031 7.167969 16 16 16h16c8.832031 0 16-7.167969 16-16s-7.167969-16-16-16h-16c-8.832031 0-16 7.167969-16 16zm0 0"/><path d="m229.945312 121.144531c-8.191406-3.296875-17.511718.703125-20.800781 8.910157l-32 80c-3.28125 8.203124.703125 17.511718 8.910157 20.800781 1.953124.785156 3.960937 1.144531 5.945312 1.144531 6.34375 0 12.351562-3.808594 14.855469-10.0625l32-80c3.28125-8.203125-.703125-17.511719-8.910157-20.792969zm0 0"/></g></svg>